<svg width="241" height="36" viewBox="0 0 241 36" fill="none" xmlns="http://www.w3.org/2000/svg">
<path d="M0.664 27V1.44H9.952C12.04 1.44 13.864 1.776 15.424 2.448C17.008 3.12 18.328 4.032 19.384 5.184C20.44 6.336 21.232 7.692 21.76 9.252C22.288 10.788 22.552 12.432 22.552 14.184C22.552 16.128 22.252 17.892 21.652 19.476C21.076 21.036 20.236 22.38 19.132 23.508C18.028 24.612 16.696 25.476 15.136 26.1C13.6 26.7 11.872 27 9.952 27H0.664ZM17.548 14.184C17.548 12.96 17.38 11.832 17.044 10.8C16.708 9.768 16.216 8.88 15.568 8.136C14.92 7.392 14.116 6.816 13.156 6.408C12.22 6 11.152 5.796 9.952 5.796H5.632V22.644H9.952C11.176 22.644 12.256 22.428 13.192 21.996C14.152 21.564 14.944 20.976 15.568 20.232C16.216 19.464 16.708 18.564 17.044 17.532C17.38 16.5 17.548 15.384 17.548 14.184ZM25.9655 27V8.136H30.7895V27H25.9655ZM25.9655 5.508V0.719999H30.7895V5.508H25.9655ZM42.5213 27.108C41.2493 27.108 40.0973 26.856 39.0653 26.352C38.0333 25.848 37.1333 25.164 36.3653 24.3C35.6213 23.412 35.0453 22.392 34.6373 21.24C34.2293 20.088 34.0253 18.864 34.0253 17.568C34.0253 16.2 34.2413 14.928 34.6733 13.752C35.1053 12.576 35.7053 11.544 36.4733 10.656C37.2413 9.768 38.1653 9.072 39.2453 8.568C40.3253 8.064 41.5133 7.812 42.8093 7.812C44.2733 7.812 45.5573 8.148 46.6613 8.82C47.7653 9.468 48.6773 10.344 49.3973 11.448V8.136H53.6093V26.1C53.6093 27.492 53.3453 28.74 52.8173 29.844C52.2893 30.948 51.5573 31.884 50.6213 32.652C49.7093 33.42 48.6053 34.008 47.3093 34.416C46.0373 34.824 44.6453 35.028 43.1333 35.028C41.0693 35.028 39.3293 34.68 37.9133 33.984C36.5213 33.312 35.3213 32.352 34.3133 31.104L36.9413 28.548C37.6613 29.436 38.5613 30.132 39.6413 30.636C40.7453 31.14 41.9093 31.392 43.1333 31.392C43.8773 31.392 44.5853 31.284 45.2573 31.068C45.9533 30.876 46.5653 30.564 47.0933 30.132C47.6213 29.7 48.0293 29.148 48.3173 28.476C48.6293 27.804 48.7853 27.012 48.7853 26.1V23.724C48.1613 24.804 47.2853 25.644 46.1573 26.244C45.0293 26.82 43.8173 27.108 42.5213 27.108ZM44.1413 23.256C44.6693 23.256 45.1733 23.172 45.6533 23.004C46.1333 22.836 46.5773 22.608 46.9853 22.32C47.3933 22.032 47.7533 21.696 48.0653 21.312C48.3773 20.928 48.6173 20.52 48.7853 20.088V15.588C48.3533 14.484 47.6693 13.596 46.7333 12.924C45.8213 12.252 44.8613 11.916 43.8533 11.916C43.1093 11.916 42.4373 12.084 41.8373 12.42C41.2373 12.732 40.7213 13.164 40.2893 13.716C39.8573 14.244 39.5213 14.856 39.2813 15.552C39.0653 16.248 38.9573 16.968 38.9573 17.712C38.9573 18.48 39.0893 19.2 39.3533 19.872C39.6173 20.544 39.9773 21.132 40.4333 21.636C40.9133 22.14 41.4653 22.536 42.0893 22.824C42.7133 23.112 43.3973 23.256 44.1413 23.256ZM57.9577 27V8.136H62.7817V27H57.9577ZM57.9577 5.508V0.719999H62.7817V5.508H57.9577ZM78.4375 26.028C77.7895 26.316 76.9975 26.604 76.0615 26.892C75.1255 27.18 74.1415 27.324 73.1095 27.324C72.4375 27.324 71.8015 27.24 71.2015 27.072C70.6255 26.904 70.1095 26.64 69.6535 26.28C69.2215 25.896 68.8735 25.416 68.6095 24.84C68.3455 24.24 68.2135 23.52 68.2135 22.68V11.844H65.7295V8.136H68.2135V2.016H73.0375V8.136H76.9975V11.844H73.0375V21.06C73.0375 21.732 73.2055 22.212 73.5415 22.5C73.9015 22.764 74.3335 22.896 74.8375 22.896C75.3415 22.896 75.8335 22.812 76.3135 22.644C76.7935 22.476 77.1775 22.332 77.4655 22.212L78.4375 26.028ZM86.0979 27.36C85.1859 27.36 84.3339 27.216 83.5419 26.928C82.7499 26.616 82.0659 26.196 81.4899 25.668C80.9139 25.116 80.4579 24.48 80.1219 23.76C79.8099 23.04 79.6539 22.248 79.6539 21.384C79.6539 20.496 79.8459 19.68 80.2299 18.936C80.6379 18.168 81.1899 17.52 81.8859 16.992C82.6059 16.464 83.4579 16.056 84.4419 15.768C85.4259 15.456 86.5059 15.3 87.6819 15.3C88.5219 15.3 89.3379 15.372 90.1299 15.516C90.9459 15.66 91.6659 15.864 92.2899 16.128V15.048C92.2899 13.8 91.9299 12.84 91.2099 12.168C90.5139 11.496 89.4699 11.16 88.0779 11.16C87.0699 11.16 86.0859 11.34 85.1259 11.7C84.1659 12.06 83.1819 12.588 82.1739 13.284L80.6979 10.224C83.1219 8.616 85.7379 7.812 88.5459 7.812C91.2579 7.812 93.3579 8.484 94.8459 9.828C96.3579 11.148 97.1139 13.068 97.1139 15.588V21.456C97.1139 21.96 97.1979 22.32 97.3659 22.536C97.5579 22.752 97.8579 22.872 98.2659 22.896V27C97.4499 27.168 96.7419 27.252 96.1419 27.252C95.2299 27.252 94.5219 27.048 94.0179 26.64C93.5379 26.232 93.2379 25.692 93.1179 25.02L93.0099 23.976C92.1699 25.08 91.1499 25.92 89.9499 26.496C88.7499 27.072 87.4659 27.36 86.0979 27.36ZM87.4659 23.832C88.2819 23.832 89.0499 23.688 89.7699 23.4C90.5139 23.112 91.0899 22.728 91.4979 22.248C92.0259 21.84 92.2899 21.384 92.2899 20.88V18.72C91.7139 18.504 91.0899 18.336 90.4179 18.216C89.7459 18.072 89.0979 18 88.4739 18C87.2259 18 86.2059 18.288 85.4139 18.864C84.6219 19.416 84.2259 20.124 84.2259 20.988C84.2259 21.804 84.5379 22.488 85.1619 23.04C85.7859 23.568 86.5539 23.832 87.4659 23.832ZM101.586 0.719999H106.41V20.952C106.41 21.648 106.578 22.188 106.914 22.572C107.25 22.956 107.73 23.148 108.354 23.148C108.642 23.148 108.954 23.1 109.29 23.004C109.65 22.908 109.986 22.788 110.298 22.644L110.946 26.316C110.298 26.628 109.542 26.868 108.678 27.036C107.814 27.204 107.034 27.288 106.338 27.288C104.826 27.288 103.65 26.892 102.81 26.1C101.994 25.284 101.586 24.132 101.586 22.644V0.719999Z" fill="#02986A"/>
<path d="M120.788 1.44H125.18L134.9 27H129.788L127.412 20.628H118.484L116.144 27H111.032L120.788 1.44ZM126.512 17.136L122.984 7.092L119.312 17.136H126.512ZM144.088 27.108C142.816 27.108 141.664 26.856 140.632 26.352C139.6 25.848 138.7 25.164 137.932 24.3C137.188 23.412 136.612 22.392 136.204 21.24C135.796 20.088 135.592 18.864 135.592 17.568C135.592 16.2 135.808 14.928 136.24 13.752C136.672 12.576 137.272 11.544 138.04 10.656C138.808 9.768 139.732 9.072 140.812 8.568C141.892 8.064 143.08 7.812 144.376 7.812C145.84 7.812 147.124 8.148 148.228 8.82C149.332 9.468 150.244 10.344 150.964 11.448V8.136H155.176V26.1C155.176 27.492 154.912 28.74 154.384 29.844C153.856 30.948 153.124 31.884 152.188 32.652C151.276 33.42 150.172 34.008 148.876 34.416C147.604 34.824 146.212 35.028 144.7 35.028C142.636 35.028 140.896 34.68 139.48 33.984C138.088 33.312 136.888 32.352 135.88 31.104L138.508 28.548C139.228 29.436 140.128 30.132 141.208 30.636C142.312 31.14 143.476 31.392 144.7 31.392C145.444 31.392 146.152 31.284 146.824 31.068C147.52 30.876 148.132 30.564 148.66 30.132C149.188 29.7 149.596 29.148 149.884 28.476C150.196 27.804 150.352 27.012 150.352 26.1V23.724C149.728 24.804 148.852 25.644 147.724 26.244C146.596 26.82 145.384 27.108 144.088 27.108ZM145.708 23.256C146.236 23.256 146.74 23.172 147.22 23.004C147.7 22.836 148.144 22.608 148.552 22.32C148.96 22.032 149.32 21.696 149.632 21.312C149.944 20.928 150.184 20.52 150.352 20.088V15.588C149.92 14.484 149.236 13.596 148.3 12.924C147.388 12.252 146.428 11.916 145.42 11.916C144.676 11.916 144.004 12.084 143.404 12.42C142.804 12.732 142.288 13.164 141.856 13.716C141.424 14.244 141.088 14.856 140.848 15.552C140.632 16.248 140.524 16.968 140.524 17.712C140.524 18.48 140.656 19.2 140.92 19.872C141.184 20.544 141.544 21.132 142 21.636C142.48 22.14 143.032 22.536 143.656 22.824C144.28 23.112 144.964 23.256 145.708 23.256ZM168.272 27.36C166.76 27.36 165.392 27.108 164.168 26.604C162.944 26.076 161.9 25.368 161.036 24.48C160.172 23.592 159.5 22.56 159.02 21.384C158.564 20.208 158.336 18.972 158.336 17.676C158.336 16.332 158.564 15.072 159.02 13.896C159.476 12.696 160.136 11.652 161 10.764C161.864 9.852 162.908 9.132 164.132 8.604C165.38 8.076 166.772 7.812 168.308 7.812C169.844 7.812 171.212 8.076 172.412 8.604C173.636 9.132 174.668 9.84 175.508 10.728C176.372 11.616 177.02 12.648 177.452 13.824C177.908 15 178.136 16.224 178.136 17.496C178.136 17.808 178.124 18.108 178.1 18.396C178.1 18.684 178.076 18.924 178.028 19.116H163.448C163.52 19.86 163.7 20.52 163.988 21.096C164.276 21.672 164.648 22.164 165.104 22.572C165.56 22.98 166.076 23.292 166.652 23.508C167.228 23.724 167.828 23.832 168.452 23.832C169.412 23.832 170.312 23.604 171.152 23.148C172.016 22.668 172.604 22.044 172.916 21.276L177.056 22.428C176.36 23.868 175.244 25.056 173.708 25.992C172.196 26.904 170.384 27.36 168.272 27.36ZM173.168 15.984C173.048 14.568 172.52 13.44 171.584 12.6C170.672 11.736 169.556 11.304 168.236 11.304C167.588 11.304 166.976 11.424 166.4 11.664C165.848 11.88 165.356 12.192 164.924 12.6C164.492 13.008 164.132 13.5 163.844 14.076C163.58 14.652 163.424 15.288 163.376 15.984H173.168ZM198.607 27H193.783V16.416C193.783 14.904 193.519 13.8 192.991 13.104C192.463 12.408 191.731 12.06 190.795 12.06C190.315 12.06 189.823 12.156 189.319 12.348C188.815 12.54 188.335 12.816 187.879 13.176C187.447 13.512 187.051 13.92 186.691 14.4C186.331 14.88 186.067 15.408 185.899 15.984V27H181.075V8.136H185.431V11.628C186.127 10.428 187.135 9.492 188.455 8.82C189.775 8.148 191.263 7.812 192.919 7.812C194.095 7.812 195.055 8.028 195.799 8.46C196.543 8.892 197.119 9.456 197.527 10.152C197.935 10.848 198.211 11.64 198.355 12.528C198.523 13.416 198.607 14.316 198.607 15.228V27ZM201.613 17.568C201.613 16.248 201.841 15 202.297 13.824C202.753 12.648 203.413 11.616 204.277 10.728C205.141 9.84 206.185 9.132 207.409 8.604C208.633 8.076 210.013 7.812 211.549 7.812C213.613 7.812 215.365 8.256 216.805 9.144C218.269 10.032 219.361 11.196 220.081 12.636L215.365 14.076C214.957 13.38 214.417 12.852 213.745 12.492C213.073 12.108 212.329 11.916 211.513 11.916C210.817 11.916 210.169 12.06 209.569 12.348C208.969 12.612 208.441 12.996 207.985 13.5C207.553 13.98 207.205 14.568 206.941 15.264C206.701 15.96 206.581 16.728 206.581 17.568C206.581 18.408 206.713 19.176 206.977 19.872C207.241 20.568 207.589 21.168 208.021 21.672C208.477 22.176 209.005 22.572 209.605 22.86C210.205 23.124 210.841 23.256 211.513 23.256C212.377 23.256 213.169 23.04 213.889 22.608C214.633 22.176 215.149 21.648 215.437 21.024L220.153 22.464C219.505 23.904 218.437 25.08 216.949 25.992C215.461 26.904 213.673 27.36 211.585 27.36C210.049 27.36 208.669 27.096 207.445 26.568C206.221 26.04 205.177 25.332 204.313 24.444C203.449 23.532 202.777 22.488 202.297 21.312C201.841 20.112 201.613 18.864 201.613 17.568ZM223.272 30.672C223.68 30.792 224.076 30.876 224.46 30.924C224.844 30.996 225.168 31.032 225.432 31.032C225.744 31.032 226.032 30.972 226.296 30.852C226.56 30.732 226.8 30.516 227.016 30.204C227.232 29.916 227.448 29.508 227.664 28.98C227.88 28.452 228.108 27.792 228.348 27L220.896 8.136H225.864L230.976 22.824L235.512 8.136H240.048L232.128 30.744C231.672 32.064 230.892 33.144 229.788 33.984C228.684 34.824 227.316 35.244 225.684 35.244C225.3 35.244 224.904 35.208 224.496 35.136C224.112 35.088 223.704 34.992 223.272 34.848V30.672Z" fill="#38424D"/>
</svg>
